<?xml version="1.0" encoding="UTF-8" standalone="no"?>
<svg
   id="Layer_1"
   data-name="Layer 1"
   viewBox="0 0 575.98804 576.00598"
   version="1.1"
   width="575.98804"
   height="576.00598"
   xmlns="http://www.w3.org/2000/svg"
   xmlns:svg="http://www.w3.org/2000/svg">
  <defs
     id="defs1" />
  <path
     d="m 12.713,12.713 -2.293,2.293 -1.414,-1.414 2.293,-2.293 c 0.391,-0.391 0.391,-1.023 0,-1.414 -0.391,-0.391 -1.023,-0.391 -1.414,0 L 7.592,12.178 5.713,10.299 c -0.391,-0.391 -1.023,-0.391 -1.414,0 -0.391,0.391 -0.391,1.023 0,1.414 L 4.651,12.065 3.517,13.2 c -1.77,1.769 -1.982,4.515 -0.638,6.519 l -2.58,2.58 c -0.391,0.391 -0.391,1.023 0,1.414 0.195,0.195 0.451,0.293 0.707,0.293 0.256,0 0.512,-0.098 0.707,-0.293 l 2.58,-2.58 c 0.865,0.58 1.868,0.871 2.871,0.871 1.321,0 2.642,-0.503 3.647,-1.509 l 1.135,-1.134 0.352,0.352 c 0.195,0.195 0.451,0.293 0.707,0.293 0.256,0 0.512,-0.098 0.707,-0.293 0.391,-0.391 0.391,-1.023 0,-1.414 l -1.879,-1.879 2.293,-2.293 c 0.391,-0.391 0.391,-1.023 0,-1.414 -0.391,-0.391 -1.023,-0.391 -1.414,0 z m 11,-12.414 c -0.391,-0.391 -1.023,-0.391 -1.414,0 l -2.58,2.58 C 17.715,1.535 14.97,1.747 13.2,3.517 L 12.065,4.652 11.712,4.299 c -0.391,-0.391 -1.023,-0.391 -1.414,0 -0.391,0.391 -0.391,1.023 0,1.414 l 8,8 c 0.195,0.195 0.451,0.293 0.707,0.293 0.256,0 0.512,-0.098 0.707,-0.293 0.391,-0.391 0.391,-1.023 0,-1.414 l -0.353,-0.353 1.135,-1.135 c 1.77,-1.769 1.982,-4.515 0.638,-6.519 l 2.58,-2.58 c 0.391,-0.391 0.391,-1.023 0,-1.414 z"
     id="path1"
     style="fill:#ffffff;fill-opacity:1" />
</svg>
