<?xml version="1.0" encoding="UTF-8" standalone="no"?>
<!-- Uploaded to: SVG Repo, www.svgrepo.com, Generator: SVG Repo Mixer Tools -->

<svg
   fill="#000000"
   version="1.1"
   id="Layer_1"
   viewBox="0 0 490 490"
   xml:space="preserve"
   sodipodi:docname="3D printer.svg"
   inkscape:version="1.3.2 (091e20e, 2023-11-25, custom)"
   xmlns:inkscape="http://www.inkscape.org/namespaces/inkscape"
   xmlns:sodipodi="http://sodipodi.sourceforge.net/DTD/sodipodi-0.dtd"
   xmlns="http://www.w3.org/2000/svg"
   xmlns:svg="http://www.w3.org/2000/svg"><defs
   id="defs10" /><sodipodi:namedview
   id="namedview10"
   pagecolor="#505050"
   bordercolor="#eeeeee"
   borderopacity="1"
   inkscape:showpageshadow="0"
   inkscape:pageopacity="0"
   inkscape:pagecheckerboard="0"
   inkscape:deskcolor="#d1d1d1"
   inkscape:zoom="2.3938776"
   inkscape:cx="244.99999"
   inkscape:cy="244.99999"
   inkscape:window-width="2560"
   inkscape:window-height="1369"
   inkscape:window-x="1912"
   inkscape:window-y="-8"
   inkscape:window-maximized="1"
   inkscape:current-layer="Layer_1" />
<g
   id="g10"
   style="fill:#ffffff;fill-opacity:1">
	<g
   id="g9"
   style="fill:#ffffff;fill-opacity:1">
		<g
   id="g8"
   style="fill:#ffffff;fill-opacity:1">
			<path
   d="M470,120c11.028,0,20-8.972,20-20V20c0-11.028-8.972-20-20-20H20C8.972,0,0,8.972,0,20v80c0,11.028,8.972,20,20,20h15     v250H20c-11.028,0-20,8.972-20,20v80c0,11.028,8.972,20,20,20h450c11.028,0,20-8.972,20-20v-80c0-11.028-8.972-20-20-20h-15V120     H470z M325,470H165v-40h160V470z M470,390l0.002,80H345v-50c0-5.522-4.478-10-10-10H155c-5.523,0-10,4.478-10,10v50H20v-80H470z      M220,190v-35h50v35H220z M270,210v15h-50v-15H270z M55,135v-15h380v15H55z M200,155v80c0,5.523,4.477,10,10,10h25v25h20v-25h25     c5.522,0,10-4.477,10-10v-80h145v15H305v20h85v180H100V190h85v-20H55v-15H200z M435,190v180h-25V190H435z M80,190v180H55V190H80z      M20,100V20h450l0.002,80H20z"
   id="path1"
   style="fill:#ffffff;fill-opacity:1" />
			<path
   d="M290,35h-90c-5.523,0-10,4.478-10,10v30c0,5.523,4.477,10,10,10h90c5.522,0,10-4.477,10-10V45     C300,39.478,295.522,35,290,35z M280,65h-70V55h70V65z"
   id="path2"
   style="fill:#ffffff;fill-opacity:1" />
			<rect
   x="315"
   y="50"
   width="20"
   height="20"
   id="rect2"
   style="fill:#ffffff;fill-opacity:1" />
			<rect
   x="355"
   y="50"
   width="60"
   height="20"
   id="rect3"
   style="fill:#ffffff;fill-opacity:1" />
			<rect
   x="75"
   y="50"
   width="60"
   height="20"
   id="rect4"
   style="fill:#ffffff;fill-opacity:1" />
			<rect
   x="155"
   y="50"
   width="20"
   height="20"
   id="rect5"
   style="fill:#ffffff;fill-opacity:1" />
			<rect
   x="215"
   y="440"
   width="60"
   height="20"
   id="rect6"
   style="fill:#ffffff;fill-opacity:1" />
			<rect
   x="425"
   y="420"
   width="20"
   height="20"
   id="rect7"
   style="fill:#ffffff;fill-opacity:1" />
			<rect
   x="45"
   y="420"
   width="20"
   height="20"
   id="rect8"
   style="fill:#ffffff;fill-opacity:1" />
		</g>
	</g>
</g>
</svg>
