<?xml version="1.0" encoding="UTF-8" standalone="no"?>
<svg
   id="Layer_1"
   data-name="Layer 1"
   viewBox="0 0 23.996208 23.998002"
   width="511.9191"
   height="511.95737"
   version="1.1"
   xmlns="http://www.w3.org/2000/svg"
   xmlns:svg="http://www.w3.org/2000/svg">
  <defs
     id="defs1" />
  <path
     d="m 22.996209,6.9970001 h -1 c -0.553,0 -1,-0.447 -1,-1 0,-0.553 0.447,-1 1,-1 h 1 c 0.553,0 1,0.447 1,1 0,0.553 -0.447,1 -1,1 z m -3.118,7.7869999 c 0.436,-0.341 0.512,-0.969 0.171,-1.403 l -0.783,-1 c -0.341,-0.436 -0.97,-0.513 -1.403,-0.171 -0.436,0.341 -0.512,0.969 -0.171,1.403 l 0.783,1 c 0.197,0.252 0.491,0.384 0.788,0.384 0.216,0 0.433,-0.069 0.615,-0.213 z m 3.108,-3.796 c 0.271,-0.481 0.101,-1.0919999 -0.38,-1.3619999 l -0.888,-0.5 c -0.482,-0.273 -1.092,-0.1 -1.362,0.38 -0.271,0.481 -0.101,1.0919999 0.38,1.3619999 l 0.888,0.5 c 0.155,0.088 0.324,0.129 0.49,0.129 0.35,0 0.688,-0.184 0.872,-0.509 z m -4.789,-1.5619999 0.454,-0.874 c 0.373,-0.72 0.441,-1.539 0.191,-2.31 -0.25,-0.771 -0.787,-1.394 -1.474,-1.736 l -6.159,-3.417 c -3.9459998,-2.05100005 -6.9109998,-0.74900005 -8.3259998,0.209 -0.597,0.403 -0.927,1.072 -0.883,1.789 0.043,0.708 0.446,1.324 1.076,1.65 L 14.173209,10.715 c 0.433,0.221 0.896,0.326 1.354,0.326 1.086,0 2.138,-0.591 2.671,-1.6149999 z M 6.1612092,8.6710001 0.31020921,19.662 c -0.723,1.455 -0.139,3.247 1.30299999,3.997 0.434,0.226 0.905,0.339 1.379,0.339 0.313,0 0.628,-0.049 0.935,-0.149 0.771,-0.252 1.395,-0.791 1.742,-1.492 L 11.437209,11.513 Z"
     id="path1"
     style="fill:#ffffff;fill-opacity:1" />
</svg>
