<?xml version="1.0" encoding="UTF-8" standalone="no"?>
<!-- Generator: Adobe Illustrator 25.0.0, SVG Export Plug-In . SVG Version: 6.00 Build 0)  -->

<svg
   version="1.1"
   id="Capa_1"
   x="0px"
   y="0px"
   viewBox="0 0 512 362.66602"
   xml:space="preserve"
   width="512"
   height="362.66602"
   xmlns="http://www.w3.org/2000/svg"
   xmlns:svg="http://www.w3.org/2000/svg"><defs
   id="defs3" />
<g
   id="g3"
   transform="translate(0,-74.667)">
	<path
   d="M 480,224 H 32 c -17.673,0 -32,14.327 -32,32 0,17.673 14.327,32 32,32 h 448 c 17.673,0 32,-14.327 32,-32 0,-17.673 -14.327,-32 -32,-32 z"
   id="path1"
   style="fill:#fdffff;fill-opacity:1" />
	<path
   d="m 32,138.667 h 448 c 17.673,0 32,-14.327 32,-32 0,-17.673 -14.327,-32 -32,-32 H 32 c -17.673,0 -32,14.327 -32,32 0,17.673 14.327,32 32,32 z"
   id="path2"
   style="fill:#ffffff;fill-opacity:1" />
	<path
   d="M 480,373.333 H 32 c -17.673,0 -32,14.327 -32,32 0,17.673 14.327,32 32,32 h 448 c 17.673,0 32,-14.327 32,-32 0,-17.673 -14.327,-32 -32,-32 z"
   id="path3"
   style="fill:#ffffff;fill-opacity:1" />
</g>















</svg>
