<?xml version="1.0" encoding="UTF-8" standalone="no"?>
<svg
   id="Layer_1"
   height="469.33328"
   viewBox="0 0 24 21.999998"
   width="512"
   data-name="Layer 1"
   version="1.1"
   xmlns="http://www.w3.org/2000/svg"
   xmlns:svg="http://www.w3.org/2000/svg">
  <defs
     id="defs1" />
  <path
     d="M 19,0 H 5 A 5.006,5.006 0 0 0 0,5 v 12 a 5.006,5.006 0 0 0 5,5 h 14 a 5.006,5.006 0 0 0 5,-5 V 5 A 5.006,5.006 0 0 0 19,0 Z M 5,2 h 14 a 3,3 0 0 1 3,3 V 6 H 2 V 5 A 3,3 0 0 1 5,2 Z M 19,20 H 5 A 3,3 0 0 1 2,17 V 8 h 20 v 9 a 3,3 0 0 1 -3,3 z m 0,-8 a 1,1 0 0 1 -1,1 H 6 a 1,1 0 0 1 0,-2 h 12 a 1,1 0 0 1 1,1 z m -4,4 a 1,1 0 0 1 -1,1 H 6 a 1,1 0 0 1 0,-2 h 8 a 1,1 0 0 1 1,1 z M 3,4 A 1,1 0 1 1 4,5 1,1 0 0 1 3,4 Z M 6,4 A 1,1 0 1 1 7,5 1,1 0 0 1 6,4 Z M 9,4 A 1,1 0 1 1 10,5 1,1 0 0 1 9,4 Z"
     id="path1"
     style="fill:#ffffff;fill-opacity:1" />
</svg>
