<?xml version="1.0" encoding="UTF-8" standalone="no"?>
<svg
   width="16"
   height="16"
   fill="currentColor"
   class="bi bi-gear-wide-connected"
   viewBox="0 0 16 16"
   version="1.1"
   id="svg1"
   sodipodi:docname="gear-wide-connected.svg"
   inkscape:version="1.3.2 (091e20e, 2023-11-25, custom)"
   xmlns:inkscape="http://www.inkscape.org/namespaces/inkscape"
   xmlns:sodipodi="http://sodipodi.sourceforge.net/DTD/sodipodi-0.dtd"
   xmlns="http://www.w3.org/2000/svg"
   xmlns:svg="http://www.w3.org/2000/svg">
  <defs
     id="defs1" />
  <sodipodi:namedview
     id="namedview1"
     pagecolor="#505050"
     bordercolor="#eeeeee"
     borderopacity="1"
     inkscape:showpageshadow="0"
     inkscape:pageopacity="0"
     inkscape:pagecheckerboard="0"
     inkscape:deskcolor="#d1d1d1"
     inkscape:zoom="73.3125"
     inkscape:cx="7.9931799"
     inkscape:cy="8"
     inkscape:window-width="2560"
     inkscape:window-height="1369"
     inkscape:window-x="1912"
     inkscape:window-y="-8"
     inkscape:window-maximized="1"
     inkscape:current-layer="svg1" />
  <path
     d="M7.068.727c.243-.97 1.62-.97 1.864 0l.071.286a.96.96 0 0 0 1.622.434l.205-.211c.695-.719 1.888-.03 1.613.931l-.08.284a.96.96 0 0 0 1.187 1.187l.283-.081c.96-.275 1.65.918.931 1.613l-.211.205a.96.96 0 0 0 .434 1.622l.286.071c.97.243.97 1.62 0 1.864l-.286.071a.96.96 0 0 0-.434 1.622l.211.205c.719.695.03 1.888-.931 1.613l-.284-.08a.96.96 0 0 0-1.187 1.187l.081.283c.275.96-.918 1.65-1.613.931l-.205-.211a.96.96 0 0 0-1.622.434l-.071.286c-.243.97-1.62.97-1.864 0l-.071-.286a.96.96 0 0 0-1.622-.434l-.205.211c-.695.719-1.888.03-1.613-.931l.08-.284a.96.96 0 0 0-1.186-1.187l-.284.081c-.96.275-1.65-.918-.931-1.613l.211-.205a.96.96 0 0 0-.434-1.622l-.286-.071c-.97-.243-.97-1.62 0-1.864l.286-.071a.96.96 0 0 0 .434-1.622l-.211-.205c-.719-.695-.03-1.888.931-1.613l.284.08a.96.96 0 0 0 1.187-1.186l-.081-.284c-.275-.96.918-1.65 1.613-.931l.205.211a.96.96 0 0 0 1.622-.434zM12.973 8.5H8.25l-2.834 3.779A4.998 4.998 0 0 0 12.973 8.5m0-1a4.998 4.998 0 0 0-7.557-3.779l2.834 3.78zM5.048 3.967l-.087.065zm-.431.355A4.98 4.98 0 0 0 3.002 8c0 1.455.622 2.765 1.615 3.678L7.375 8zm.344 7.646.087.065z"
     id="path1"
     style="fill:#ffffff;fill-opacity:1" />
</svg>
